<svg width="18" height="18" viewBox="0 0 18 18" fill="none" xmlns="http://www.w3.org/2000/svg">
<path d="M11.1527 9.00298L5.50312 14.6525C5.35412 14.8015 5.2815 14.977 5.28525 15.1789C5.28912 15.3809 5.36556 15.5564 5.51456 15.7054C5.66369 15.8544 5.83919 15.9289 6.04106 15.9289C6.24294 15.9289 6.41844 15.8544 6.56756 15.7054L12.3208 9.96354C12.4564 9.82792 12.5569 9.67598 12.6223 9.50773C12.6877 9.33948 12.7204 9.17123 12.7204 9.00298C12.7204 8.83473 12.6877 8.66648 12.6223 8.49823C12.5569 8.32998 12.4564 8.17804 12.3208 8.04242L6.56756 2.28898C6.41844 2.13998 6.241 2.06742 6.03525 2.07129C5.8295 2.07517 5.65212 2.1516 5.50312 2.3006C5.35412 2.4496 5.27962 2.6251 5.27962 2.8271C5.27962 3.02898 5.35412 3.20442 5.50312 3.35342L11.1527 9.00298Z" fill="#656563"/>
</svg>
